<svg height="681pt" viewBox="-31 -21 681 681.33607" width="681pt" xmlns="http://www.w3.org/2000/svg"><path d="m245.941406 113.957031c2.453125 2.457031 5.675782 3.683594 8.894532 3.683594s6.4375-1.226563 8.890624-3.683594l39.78125-39.773437c4.90625-4.914063 4.90625-12.878906 0-17.789063-4.910156-4.914062-12.875-4.914062-17.785156 0l-39.78125 39.777344c-4.910156 4.914063-4.910156 12.878906 0 17.785156zm0 0"/><path d="m312.125 113.957031c2.457031 2.457031 5.671875 3.683594 8.886719 3.683594 3.222656 0 6.4375-1.226563 8.894531-3.683594l39.78125-39.773437c4.914062-4.914063 4.914062-12.878906 0-17.789063-4.910156-4.914062-12.875-4.914062-17.789062 0l-39.777344 39.777344c-4.910156 4.914063-4.910156 12.878906.003906 17.785156zm0 0"/><path d="m599.824219 486.949219h-44.496094v-41.75c0-6.941407-5.636719-12.578125-12.578125-12.578125h-47.269531v-28.601563h44.5c10.398437 0 18.863281-8.457031 18.863281-18.863281v-114.152344c0-10.398437-8.464844-18.863281-18.863281-18.863281h-44.5v-40.742187c0-6.949219-5.632813-12.578126-12.578125-12.578126h-161.773438v-28.546874h91.371094c10.8125 0 19.613281-8.800782 19.613281-19.621094v-130.953125c0-10.816407-8.800781-19.6171878-19.613281-19.6171878h-55.605469c-6.949219 0-12.578125 5.6289068-12.578125 12.5781248 0 6.945313 5.628906 12.578125 12.578125 12.578125h50.070313v119.878907h-196.8125v-119.878907h45.835937c6.945313 0 12.578125-5.632812 12.578125-12.578125 0-6.949218-5.632812-12.5781248-12.578125-12.5781248h-51.378906c-10.8125 0-19.613281 8.8007808-19.613281 19.6171878v130.953125c0 10.820312 8.800781 19.621094 19.613281 19.621094h91.371094v28.546874h-168.4375c-6.945313 0-12.578125 5.628907-12.578125 12.578126v40.742187h-44.496094c-10.40625 0-18.867188 8.464844-18.867188 18.863281v114.152344c0 10.40625 8.460938 18.863281 18.867188 18.863281h44.496094v28.601563h-38.839844c-6.949219 0-12.578125 5.636718-12.578125 12.578125v41.75h-45.179687c-10.40625 0-18.863282 8.464843-18.863282 18.863281v114.152344c0 10.40625 8.457032 18.871094 18.863282 18.871094h114.152343c10.398438 0 18.863281-8.464844 18.863281-18.871094v-114.152344c0-10.398438-8.464843-18.863281-18.863281-18.863281h-43.820312v-29.175781h207.28125v29.175781h-43.75c-10.816407 0-19.613281 8.800781-19.613281 19.621093v112.644532c0 10.820312 8.796874 19.621094 19.613281 19.621094h6.371093c6.945313 0 12.578126-5.632813 12.578126-12.578126 0-6.945312-5.632813-12.578124-12.578126-12.578124h-.832031v-101.574219h101.574219v101.574219h-.878906c-6.945313 0-12.578125 5.632812-12.578125 12.578124 0 6.945313 5.632812 12.578126 12.578125 12.578126h6.414062c10.816406 0 19.613282-8.800782 19.613282-19.621094v-112.644532c0-10.820312-8.796876-19.621093-19.613282-19.621093h-43.75v-29.175781h209.042969v29.175781h-44.5c-10.402344 0-18.863281 8.464843-18.863281 18.863281v114.152344c0 10.40625 8.460937 18.871094 18.863281 18.871094h114.152344c10.398437 0 18.863281-8.464844 18.863281-18.871094v-114.152344c0-10.398438-8.464844-18.863281-18.863281-18.863281zm-473.597657 25.15625v101.574219h-101.574218v-101.574219zm-49.472656-133.234375v-101.574219h101.574219v101.574219zm393.574219 53.75h-330.207031v-28.601563h44.5c10.398437 0 18.863281-8.457031 18.863281-18.863281v-114.152344c0-10.398437-8.464844-18.863281-18.863281-18.863281h-44.5v-28.167969h330.207031v28.167969h-44.5c-10.40625 0-18.863281 8.464844-18.863281 18.863281v114.152344c0 10.40625 8.457031 18.863281 18.863281 18.863281h44.5zm-38.214844-53.75v-101.574219h101.574219v101.574219zm161.417969 234.808594h-101.574219v-101.574219h101.574219zm0 0"/><path d="m299.167969 22.675781.367187.277344c2.277344 1.730469 4.949219 2.570313 7.605469 2.570313 3.792969 0 7.546875-1.714844 10.019531-4.972657 4.203125-5.53125 3.128906-13.414062-2.402344-17.621093l-.371093-.28125c-5.53125-4.203126-13.421875-3.128907-17.621094 2.40625-4.207031 5.527343-3.128906 13.414062 2.402344 17.621093zm0 0"/><path d="m316.34375 615.945312-.363281-.277343c-5.53125-4.199219-13.421875-3.125-17.628907 2.40625-4.199218 5.53125-3.117187 13.421875 2.414063 17.625l.363281.28125c2.277344 1.726562 4.949219 2.5625 7.597656 2.5625 3.800782 0 7.554688-1.714844 10.03125-4.96875 4.199219-5.539063 3.121094-13.425781-2.414062-17.628907zm0 0"/></svg>